<?xml version="1.0" encoding="utf-8"?>
<!-- Generator: Adobe Illustrator 15.1.0, SVG Export Plug-In . SVG Version: 6.00 Build 0)  -->
<!DOCTYPE svg PUBLIC "-//W3C//DTD SVG 1.1//EN" "http://www.w3.org/Graphics/SVG/1.1/DTD/svg11.dtd">
<svg version="1.1" id="Layer_1" xmlns="http://www.w3.org/2000/svg" xmlns:xlink="http://www.w3.org/1999/xlink" x="0px" y="0px"
	 width="792px" height="612px" viewBox="0 0 792 612" enable-background="new 0 0 792 612" xml:space="preserve">
<path fill-rule="evenodd" clip-rule="evenodd" stroke="#000000" stroke-width="3" stroke-linecap="round" stroke-linejoin="round" stroke-miterlimit="22.9256" d="
	M158.999,216.894c16.919-10.85,35.378-20.906,64.742-27.853s69.635-10.787,98.79-8.142c29.155,2.646,47.193,11.775,63.38,20.64
	c16.187,8.866,30.521,17.468,45.901,23.687c15.382,6.219,31.812,10.055,54.884,5.291c23.073-4.764,52.788-18.126,75.808-42.447
	c23.019-24.32,39.342-59.599,51.611-83.482c12.271-23.883,20.487-36.373,31.785-46.859c11.298-10.487,25.676-18.973,36.688-20.826
	s18.657,2.927,31.758,9.836c13.102,6.909,31.659,15.945,38.687,24.943c7.026,8.998,2.522,17.957-5.882,22.304
	c-8.404,4.347-20.71,4.082-35.392,5.273c-14.683,1.191-31.742,3.837-48.104,21.7c-16.36,17.862-32.021,50.942-49.082,77.802
	c-17.059,26.86-35.518,47.501-54.115,62.056s-37.336,23.022-50.263,28.925s-20.042,9.238-26.602,18.108
	c-6.168,8.341-11.843,21.574-16.487,30.263c-2.327,9.198-5.468,17.21-7.155,25.392c-2.31,11.204-1.895,22.729,0.724,33.606
	c2.618,10.877,7.439,21.108,13.026,28.82s11.94,12.904,14.251,17.276s0.577,7.925-6.499,9.701
	c-7.075,1.776-19.493,1.776-28.446,1.229s-14.44-1.64-18.438-10.854c-3.999-9.215-10.284-28.734-11.973-43.961
	s1.221-26.16-3.299-33.414c-6.875-11.033-26.241-11.226-32.345,0.82c-2.845,5.613-4.217,14.222-5.646,22.95
	c-1.429,8.729-2.916,17.578-0.688,24.855c2.227,7.277,8.167,12.982,13.159,17.61c4.992,4.63,9.036,8.182,10.913,11.871
	s1.588,7.515-4.265,9.89c-5.852,2.374-17.268,3.299-25.643,3.299s-13.709-0.925-17.821-1.933c-4.112-1.008-7-2.102-9.021-6.884
	c-2.022-4.781-3.177-13.254-4.68-22.813s-3.354-20.208-3.593-29.808s2.617-19.051,0.739-25.609
	c-1.877-6.559-56.751-15.617-61.643,5.05c-1.957,8.27-9.089,14.886-13.634,21.369s-6.502,12.835-7.062,18.921
	c-0.559,6.087,0.28,11.908,3.707,17.2c3.426,5.292,9.44,10.054,11.014,13.758s-1.293,6.351-8.006,7.74
	c-6.712,1.391-17.271,1.524-24.088,1.261s-9.894-0.926-12.271-2.977s-4.055-5.491-4.964-12.239s-1.049-16.804-1.888-25.272
	c-0.839-8.468-2.377-15.349-1.328-21.634c1.049-6.284,4.685-11.974,5.13-16.209c0.445-4.234-2.3-7.015-7.263-8.813
	c-4.962-1.798-12.142-2.613-17.913-0.764c-5.771,1.849-10.131,6.361-14.538,13.319c-4.406,6.959-8.858,16.362-10.734,24.371
	c-1.876,8.01-1.177,14.625,0.833,20.282c2.01,5.656,5.331,10.354,8.67,14.687c3.339,4.333,6.696,8.301,4.599,11.144
	c-2.097,2.845-9.648,4.564-18.248,5.293c-8.6,0.729-18.25,0.466-24.124-1.584s-7.971-5.888-8.792-12.603
	c-0.822-6.715-0.367-16.309-0.979-24.413c-0.612-8.104-2.29-14.72-1.171-21.203s5.034-12.835,7.428-17.46s3.265-7.524,3.335-10.567
	c0.04-1.745-0.184-3.538-0.959-4.946c-0.859-0.708-1.782-1.523-2.979-2.013c-2.457-1.004-6.069-0.629-10.224,0.265
	c-4.155,0.895-8.854,2.308-15.103,6.983c-6.247,4.677-14.042,12.616-19.618,25.583c-5.576,12.968-8.932,30.963-5.017,48.163
	c3.915,17.201,15.102,33.608,31.882,48.957s39.153,29.639,68.519,40.224c29.365,10.586,65.722,17.466,105.435,20.377
	c39.713,2.911,82.782,1.853,126.13-4.764c43.349-6.615,86.977-18.789,118.3-30.433c31.322-11.644,50.34-22.758,53.416-21.699
	c3.077,1.059-9.788,14.29-35.5,28.199s-64.271,28.497-114.332,38.817s-111.623,16.375-169.653,13.066
	c-58.031-3.308-112.531-15.978-153.643-36.09c-41.111-20.111-68.833-47.666-80.177-78.909c-11.344-31.242-6.31-66.173,4.178-95.514
	s26.428-53.092,42.858-75.42C110.141,262.272,129.674,235.698,158.999,216.894z"/>
</svg>
