<?xml version="1.0" encoding="UTF-8" standalone="no"?>
<!-- Created with Inkscape (http://www.inkscape.org/) -->
<svg xmlns:inkscape="http://www.inkscape.org/namespaces/inkscape" xmlns:rdf="http://www.w3.org/1999/02/22-rdf-syntax-ns#" xmlns="http://www.w3.org/2000/svg" xmlns:cc="http://creativecommons.org/ns#" xmlns:dc="http://purl.org/dc/elements/1.1/" xmlns:sodipodi="http://sodipodi.sourceforge.net/DTD/sodipodi-0.dtd" xmlns:svg="http://www.w3.org/2000/svg" xmlns:ns1="http://sozi.baierouge.fr" id="svg18635" sodipodi:docname="_svgclean2.svg" viewBox="0 0 344.04 180.08" sodipodi:version="0.32" version="1.1" inkscape:output_extension="org.inkscape.output.svg.inkscape" inkscape:version="0.48.3.1 r9886" xmlns:xlink="http://www.w3.org/1999/xlink">
  <sodipodi:namedview id="base" bordercolor="#666666" inkscape:pageshadow="2" inkscape:window-y="0" pagecolor="#ffffff" inkscape:window-maximized="0" inkscape:window-width="674" inkscape:zoom="2.2222222" inkscape:window-x="0" showgrid="false" borderopacity="1.0" inkscape:current-layer="layer1" inkscape:cx="209.89275" inkscape:cy="-812.60226" inkscape:window-height="645" inkscape:pageopacity="0.0" inkscape:document-units="px"/>
  <g id="layer1" inkscape:label="Layer 1" inkscape:groupmode="layer" transform="translate(-1.7888 -1.1755)">
    <path id="path21173" style="stroke-linejoin:round;stroke-opacity:.26368;stroke:#000000;stroke-linecap:round;stroke-width:1.3473;fill:#000000" inkscape:connector-curvature="0" d="m196.67 1.85c-1.81-0.082-2.52 5.8532-4.35 8.375-1.9 2.634-4.26 5.345-6.84 7.094-1.14 0.773-3.6-0.568-4.31 0.469-1.58 2.292-1.24 6.598-2.63 9.343-1.14-0.845-2.29-1.697-3.37-2.562-3.38-2.693-7.19-4.937-10.38-7.813-1.7-1.538-2.37-4.278-4.28-5.437-3.29-2.0073-9.23-5.0681-11.31-4.0628-1.63 0.79 0.56 6.3518 0.16 9.4378-0.43 3.223-1.22 6.733-2.66 9.5-0.64 1.223-3.43 1.218-3.56 2.468-0.15 1.38 0.41 2.986 1 4.626-1.42-0.583-2.86-1.164-4.22-1.782-3.52-1.599-7.3-2.699-10.69-4.5-1.81-0.963-3.03-3.191-4.94-3.781-3.29-1.022-9.1-2.39-10.68-1.063-1.25 1.043 1.89 5.39 2.21 8.157 0.29 2.474 0.29 5.129-0.09 7.562-2.23-0.395-4.42-0.812-6.56-1.469-1.96-0.603-3.58-2.592-5.56-2.812-3.44-0.381-9.385-0.603-10.691 1-1.027 1.259 2.848 4.937 3.687 7.594 0.876 2.775 1.591 5.929 1.469 8.718-0.054 1.234-2.333 2.279-1.969 3.344 0.851 2.487 4.464 4.632 5.504 7.282-0.64-0.138-1.29-0.283-1.91-0.438-2.672-0.673-5.551-0.943-8.125-1.781-1.377-0.449-2.275-1.899-3.719-2.063-2.499-0.283-6.903-0.441-8.094 0.75-0.935 0.936 1.459 3.651 1.719 5.625 0.272 2.063 0.347 4.395-0.125 6.469-0.208 0.917-2.063 1.708-1.937 2.5 0.283 1.79 2.546 3.335 3.062 5.219-0.87-0.176-1.752-0.36-2.593-0.563-2.224-0.535-4.549-0.739-6.719-1.406-1.161-0.357-2.109-1.526-3.281-1.656-2.03-0.226-5.54-0.354-6.313 0.594-0.607 0.744 1.691 2.929 2.187 4.5 0.519 1.64 0.916 3.475 0.844 5.124-0.032 0.73-1.371 1.371-1.156 2 0.534 1.56 2.975 2.859 3.406 4.563 0.429 1.697-1.13 3.993-0.812 5.625 0.047 0.241 0.303 0.424 0.5 0.625-1.227 0.429-2.43 0.917-3.656 1.344-3.831 1.332-9.684 5.121-11.594 3.721-1.91-1.41 0.614-8.167 0.125-12.159-0.524-4.273-2.459-12.461-3.157-12.625-0.628-0.148-0.493 7.793-0.812 11.688-0.383 4.682 0.484 10.715-1.281 14.026-0.071 0.14-0.266 0.16-0.375 0.26-3.643-4.19-7.359-8.624-11.313-13.349-0.101-7.208-0.317-13.098-0.656-13.156-0.163-0.028-0.377 1.33-0.625 3.563-0.184 1.651-0.472 4.882-0.688 7.25-1.731-2.06-4.047-4.82-5.281-6.219-1.602-1.818-2.662-2.888-2.812-2.75-0.323 0.296 3.261 6.055 7.719 12.843-0.411 4.666-0.78 8.658-1.219 13.098-1.326 0.02-2.624-0.09-3.719-0.6-4.018-1.88-6.775-7.079-9.812-10.904-3.356-4.225-7.758-11.915-9.344-13.25-0.7535-0.634 1.318 4.983 2.312 7.344 1.657 3.935 3.476 7.882 5.625 11.562 1.437 2.458 5.638 5.958 5.157 6.878-0.455 0.86-5.315-1.07-7.969-1.57-2.024-0.37-4.068-0.57-6.0628-1.06-1.5916-0.39-3.2478-1.6-4.6874-1.56-0.7435 0.02-2.3327 1.32-1.875 1.72 1.5695 1.37 5.2479 2.57 7.9682 3.59 6.48 2.44 12.896 5.27 19.626 6.78 9.332 2.1 18.999 3.39 28.562 4.07 11.021 0.78 22.117 0.17 33.188 0.34 2.652 0.04 5.353 0.61 7.968 0.31 3.774-0.42 7.484-1.65 11.224-2.5 7.02-1.59 15.13-4.86 21.06-4.81 1.39 0.01 0.19 3.57 0.94 5 0.66 1.28 1.99 2.38 3.28 3.12 2.6 1.5 6.56 1.95 8.4 3.6 0.66 0.59-0.24 2.36-0.94 3.12-1.48 1.63-4.07 2.41-5.62 4.07-1.57 1.67-2.61 3.88-3.72 5.93-0.61 1.13-1.07 2.36-1.4 3.6-0.45 1.63-0.34 3.43-0.94 5-0.8 2.08-2.28 3.91-3.28 5.94-1.53 3.07-3.13 6.17-4.32 9.37-0.6 1.63-1.16 3.42-1.06 5.13 0.13 2.19 0.86 4.5 1.75 6.56 1.06 2.46 2.05 5.69 4.09 7.03 2.24 1.46 5.84 1.15 8.79 1.37 3.21 0.25 8.74 1.32 9.68 0 0.85-1.17-2.61-5.17-4.31-7.46-1.18-1.61-3.72-2.47-4.34-4.22-0.87-2.46-1.29-6.07-0.1-8.41 2.16-4.21 6.16-8.46 10.16-11.25 2.94-2.05 7.82-1.27 10.66-3.25 2.07-1.45 1.95-6.33 4.09-7.03 3.09-1.01 8.91-0.29 11.56 1.87 2.88 2.36 2.79 8.21 5.03 11.69 1.27 1.98 4.71 2.56 5.5 4.69 1.78 4.73 0.73 10.93 2.22 15.91 0.61 2.03 2.28 4.19 4.1 5.15 2.32 1.23 5.53 0.99 8.31 1.41 3.38 0.51 6.79 1.29 10.19 1.37 2.91 0.07 8.58 0.55 8.75-0.9 0.22-1.98-4.56-6.94-7.6-9.38-2.32-1.86-6.45-1.6-8.5-3.56-1.74-1.67-2.63-4.79-2.87-7.31-0.31-3.23 0.96-6.62 1.25-9.94 0.24-2.84-1.42-7.51 0.34-8.53 2.67-1.55 8.69 0.13 12.94 0.81 4.24 0.68 9.55 0.85 12.53 3.28 2.55 2.09 3.02 6.76 4.09 10.28 1.35 4.43 1.43 9.52 3.16 13.56 0.53 1.26 2.88 1.21 3.63 2.35 1.2 1.82 0.58 5.41 2.21 6.56 2.34 1.65 6.43 1.57 9.69 1.88 3.36 0.31 6.83 0.3 10.19 0 1.87-0.17 5.53-0.4 5.5-1.41-0.05-1.49-3.56-4.41-5.75-6.09-2.88-2.22-7.1-3.21-9.47-5.63-1.1-1.12-0.81-3.31-0.94-5-0.19-2.58 0.42-5.24 0-7.78-0.51-3.13-2.68-6.21-2.78-9.22-0.06-1.72 0.94-4.04 2.31-5 2.06-1.44 6.14-3.22 7.97-2.19 2.22 1.25 2.03 6.96 4.22 9.03 1.71 1.62 5.18 0.88 7.47 2 3.94 1.94 8.18 4.19 11.22 7.19 1.8 1.78 2.97 4.8 3.28 7.16 0.15 1.17-1.87 2.25-1.88 3.41 0 1.28 0.73 3.19 1.88 3.9 3.06 1.88 7.24 2.46 10.78 3.88 2.55 1.02 5.5 3.11 7.47 3.43 0.52 0.09-0.51-1.96 0-2.21 1.2-0.59 4.09 0.4 5.16-0.32 0.64-0.43 0.67-2.48 0-3.12-1.83-1.76-5.8-2.14-7.5-4.06-1.11-1.26-0.72-3.64-0.94-5.47-0.25-2.13-0.3-4.28-0.47-6.41-0.14-1.82 0.29-3.92-0.47-5.47-0.95-1.94-2.87-3.62-4.65-5-2.12-1.64-5.41-2.2-7.04-4.06-1.02-1.17-0.21-3.52-0.93-5-0.99-2.01-5.03-4.46-4.22-5.47 1.22-1.54 6.86-1.55 10.31-2.19 2.79-0.51 5.67-0.55 8.41-1.25 3.03-0.77 5.85-2.53 8.9-3.12 3.65-0.71 7.68 0 11.22-0.82 1.45-0.33 2.33-2.32 3.75-2.65 2.17-0.51 4.78 0.58 7 0.15 1.37-0.26 2.38-1.77 3.75-2.18 3-0.9 6.72-0.54 9.35-1.75 0.99-0.46 1.77-2.21 1.53-3.25-0.46-1.93-1.76-4.73-3.63-5.63-3.97-1.91-9.45-1.47-13.9-2.81-1.24-0.37-1.91-2.24-3.16-2.34-0.27-0.03-0.57 0.01-0.84 0 0.02-0.09 0.06-0.15 0.09-0.22 0.3-0.76 0.66-1.5 0.87-2.28 0.13-0.47 0.32-1.048 0.16-1.472-0.47-1.228-1.33-2.333-2.03-3.469-0.55-0.891-1.22-1.7-1.72-2.625-0.27-0.495-0.27-1.215-0.59-1.625-0.57-0.711-1.6-1.85-2.07-1.719-0.36 0.103-0.18 1.644-0.4 2.406-0.24 0.796-0.58 1.632-1 2.25-0.19 0.273-0.73 0.096-0.81 0.406-0.22 0.769 0.21 2.051-0.07 2.844-0.28 0.79-1.33 1.207-1.62 1.938-0.15 0.365 0.09 0.956 0.28 1.346 0.42 0.84 0.98 1.69 1.56 2.34-1.57 0.14-3.13 0.37-4.65 0.63-0.01-1.55-0.48-3.22-0.76-4.816-0.23-1.321-0.66-2.615-0.81-3.938-0.08-0.707 0.33-1.495 0.13-2.156-0.36-1.144-1.09-3.056-1.78-3.25-0.55-0.152-1.18 1.585-1.91 2.219-0.76 0.662-1.66 1.309-2.56 1.656-0.24 0.093-0.52 0.001-0.81-0.094-0.1-0.458-0.23-0.912-0.29-1.375-0.08-0.742 0.34-1.557 0.13-2.25-0.37-1.199-1.15-3.234-1.88-3.437-0.56-0.16-1.23 1.679-2 2.343-0.79 0.695-1.74 1.387-2.68 1.75-0.33 0.126-0.75-0.129-1.1-0.156-0.02-0.125-0.07-0.251-0.09-0.375-0.28-1.61-0.79-3.2-0.97-4.812-0.1-0.862 0.4-1.789 0.16-2.594-0.43-1.394-1.35-3.764-2.19-4-0.66-0.186-1.43 1.946-2.31 2.719-0.26 0.223-0.6 0.348-0.88 0.562-0.17-0.748-0.38-1.494-0.47-2.25-0.11-0.965 0.47-2.036 0.19-2.937-0.48-1.561-1.5-4.173-2.44-4.438-0.74-0.208-1.6 2.167-2.59 3.031-1.04 0.904-2.3 1.809-3.53 2.282-0.01 0.003-0.03-0.003-0.03 0-0.28-2.664-0.91-5.416-1.38-8.094-0.48-2.732-1.35-5.42-1.65-8.156-0.17-1.464 0.67-3.071 0.24-4.438-0.73-2.366-2.29-6.348-3.71-6.75-1.13-0.315-2.43 3.283-3.94 4.594-0.79 0.685-1.64 1.37-2.53 1.969-0.3-1.367-0.64-2.745-0.78-4.125-0.17-1.549 0.67-3.241 0.25-4.688-0.73-2.505-2.3-6.731-3.72-7.156-1.12-0.334-2.43 3.487-3.94 4.875-0.06 0.054-0.13 0.102-0.19 0.156-0.5-2.122-0.98-4.232-1.22-6.375-0.22-2.013 0.93-4.245 0.35-6.125-1.01-3.255-3.13-8.729-5.1-9.281-1.54-0.434-3.33 4.509-5.4 6.312-2.17 1.884-4.74 3.764-7.31 4.75-1.14 0.436-3-1.217-3.82-0.468-0.2 0.183-0.33 0.487-0.5 0.718-1.79-2.533-3.72-4.978-5.22-7.656-0.99-1.767-0.79-4.274-2.06-5.781-2.19-2.609-6.29-6.817-8.31-6.563-1.59 0.2-1.32 5.471-2.53 7.938-1.27 2.577-2.92 5.279-4.91 7.188-0.23 0.217-0.66 0.191-1.03 0.25-0.13-0.292-0.28-0.585-0.41-0.876-1.69-3.976-3.97-7.737-5.4-11.781-0.77-2.162-0.07-4.919-1.19-6.843-1.94-3.3325-5.72-8.8337-8.03-8.938zm-160.22 93.188c2.048 3.059 3.989 5.922 5.969 8.722-0.218-0.01-0.489-0.08-0.688-0.07-1.695 0.09-3.52 0.47-5.312 0.75 0.055-3.05 0.044-6.115 0.031-9.402z"/>
  </g>
  <metadata id="metadata6">
    <rdf:RDF>
      <cc:Work>
        <dc:format>image/svg+xml</dc:format>
        <dc:type rdf:resource="http://purl.org/dc/dcmitype/StillImage"/>
        <cc:license rdf:resource="http://creativecommons.org/licenses/publicdomain/"/>
        <dc:publisher>
          <cc:Agent rdf:about="http://openclipart.org/">
            <dc:title>Openclipart</dc:title>
          </cc:Agent>
        </dc:publisher>
      </cc:Work>
      <cc:License rdf:about="http://creativecommons.org/licenses/publicdomain/">
        <cc:permits rdf:resource="http://creativecommons.org/ns#Reproduction"/>
        <cc:permits rdf:resource="http://creativecommons.org/ns#Distribution"/>
        <cc:permits rdf:resource="http://creativecommons.org/ns#DerivativeWorks"/>
      </cc:License>
    </rdf:RDF>
  </metadata>
</svg>
